<group>
seq_length=4

<region>
sample=../Samples/vowel_short/a/vowel_a_c3_short_rr1.wav
lokey=48
hikey=48
pitch_keycenter=48

<region>
sample=../Samples/vowel_short/a/vowel_a_db3_short_rr1.wav
lokey=49
hikey=49
pitch_keycenter=49

<group>
seq_length=4
seq_position=2

<region>
sample=../Samples/vowel_short/a/vowel_a_c3_short_rr2.wav
lokey=48
hikey=48
pitch_keycenter=48

<region>
sample=../Samples/vowel_short/a/vowel_a_db3_short_rr2.wav
lokey=49
hikey=49
pitch_keycenter=49


<group>
seq_length=4
seq_position=3

<region>
sample=../Samples/vowel_short/a/vowel_a_c3_short_rr3.wav
lokey=48
hikey=48
pitch_keycenter=48

<region>
sample=../Samples/vowel_short/a/vowel_a_db3_short_rr3.wav
lokey=49
hikey=49
pitch_keycenter=49


<group>
seq_length=4
seq_position=4

<region>
sample=../Samples/vowel_short/a/vowel_a_c3_short_rr4.wav
lokey=48
hikey=48
pitch_keycenter=48

<region>
sample=../Samples/vowel_short/a/vowel_a_db3_short_rr4.wav
lokey=49
hikey=49
pitch_keycenter=49
